<?xml version="1.0" encoding="utf-8" ?>
<svg xmlns="http://www.w3.org/2000/svg" xmlns:xlink="http://www.w3.org/1999/xlink" width="500" height="500">
	<path fill="#FEFEFE" d="M0 0L500 0L500 500L0 500L0 0Z"/>
	<path d="M353.818 250.015C355.862 250.018 361.735 249.302 363.209 250.444C363.503 250.671 363.456 250.977 363.514 251.319C362.802 253.471 360.662 255.169 359.079 256.74Q356.38 259.456 353.719 262.209C353.982 258.186 353.801 254.051 353.818 250.015Z"/>
	<path d="M149.183 238.199C149.801 238.975 149.445 248.282 149.441 249.988Q144.636 250.054 139.833 249.922C139.649 249.708 139.606 249.428 139.522 249.162C140.166 246.178 146.797 240.567 149.183 238.199Z"/>
	<path d="M251.484 352.002L265.156 352.013L259.977 357.174C258.409 358.814 256.826 360.412 255.168 361.963L251.415 362.027Q251.411 357.014 251.484 352.002Z"/>
	<path d="M248.362 138.046L251.763 137.963C251.86 141.295 251.795 144.645 251.794 147.979C248.47 148.037 245.137 147.99 241.812 147.99L237.947 147.964C241.369 144.953 244.575 140.365 248.362 138.046Z"/>
	<path d="M254.188 213.231L262.147 213.263C262.264 221.997 262.116 230.736 262.201 239.471L288.314 239.512L288.312 247.491L254.175 247.495L254.188 213.231Z"/>
	<path d="M214.973 252.507L249.125 252.514C249.319 263.915 249.178 275.344 249.183 286.748L241.162 286.758L241.153 260.524L214.956 260.486C214.887 257.823 214.924 255.17 214.973 252.507Z"/>
	<path d="M254.202 252.493L288.467 252.503L288.488 260.493L262.179 260.51C262.067 269.258 262.18 278.019 262.191 286.768L254.163 286.784C254.307 275.36 254.145 263.92 254.202 252.493Z"/>
	<path d="M241.193 213.197L249.146 213.232L249.177 247.482L222.875 247.496L214.766 247.481L214.782 239.503L241.118 239.488C241.288 230.733 241.164 221.954 241.193 213.197Z"/>
	<path d="M139.722 138.001L241.119 138.012C237.643 141.145 234.431 144.602 231.162 147.95C223.034 148.215 150.832 147.528 149.705 148.249C149.407 148.44 149.492 148.867 149.462 149.188C149.162 168.39 149.439 187.642 149.454 206.849C149.461 214.78 149.696 222.781 149.383 230.704C146.298 234.218 142.85 237.471 139.557 240.792C139.856 237.081 139.67 233.257 139.668 229.532L139.66 209.941C139.655 185.979 139.289 161.957 139.722 138.001Z"/>
	<path d="M363.376 259.432C363.77 259.843 363.683 260.229 363.7 260.788C364.039 271.892 363.687 283.118 363.688 294.234L363.683 361.984C351.452 362.177 339.19 362.003 326.957 362.003L262.819 361.971L262.708 361.534C265.616 358.288 268.873 355.101 272.084 352.155C275.469 351.835 278.959 351.98 282.358 351.983L299.161 351.991L353.774 351.972L353.796 295.837C353.796 287.049 353.396 278.054 353.886 269.29C356.776 265.788 360.261 262.74 363.376 259.432Z"/>
</svg>
